<svg width="18" height="18" viewBox="0 0 18 18" fill="none" xmlns="http://www.w3.org/2000/svg">
<path d="M10.6782 0.798513H16.4264C16.6453 0.798513 16.8252 0.868898 16.966 1.00967C17.1067 1.15044 17.1771 1.33032 17.1771 1.54929V7.29745H15.6756V3.35586L8.42585 10.6056L7.37007 9.54979L14.6198 2.30007H10.6782V0.798513ZM0.659973 2.53469C0.659973 2.33136 0.734269 2.15539 0.882861 2.0068C1.03145 1.85821 1.20742 1.78391 1.41075 1.78391H8.16777V3.28547H2.16153V15.8141H14.6902V9.80787H16.1917V16.5649C16.1917 16.7682 16.1174 16.9442 15.9688 17.0928C15.8203 17.2414 15.6443 17.3157 15.441 17.3157H1.41075C1.20742 17.3157 1.03145 17.2414 0.882861 17.0928C0.734269 16.9442 0.659973 16.7682 0.659973 16.5649V2.53469Z" fill="#00CCAB"/>
</svg>
