<svg width="106" height="11" viewBox="0 0 106 11" fill="none" xmlns="http://www.w3.org/2000/svg">
<path d="M72.9909 9.40966H74.9033V5.93985L78.2154 0.735135H76.0467L73.957 4.20495L71.9263 0.75485H69.6986L73.0107 5.999V9.40966H72.9909ZM61.6746 9.40966H63.5672V3.90922L67.7468 9.40966H69.3634V0.75485H67.4905V6.07786L63.4292 0.75485H61.6746V9.40966ZM55.4644 5.78213L56.6079 2.98263L57.7514 5.78213H55.4644ZM52.0538 9.40966H54.0055L54.7941 7.4579H58.4414L59.23 9.40966H61.2015L57.5345 0.695705H55.7602L52.0538 9.40966ZM48.1897 5.11183V2.50947H49.6486C50.5949 2.50947 51.1863 2.96291 51.1863 3.81065V3.83036C51.1863 4.57953 50.6343 5.13154 49.688 5.13154H48.1897V5.11183ZM46.2773 9.40966H48.1897V6.80731H49.6288C51.5609 6.80731 53.1184 5.78213 53.1184 3.77122C53.1184 1.99688 51.8763 0.774565 49.8063 0.774565H46.297V9.42938L46.2773 9.40966ZM36.4199 9.40966H38.2928V3.77122L40.698 7.43818H40.7572L43.1821 3.77122V9.40966H45.0747V0.75485H43.0244L40.7572 4.42181L38.49 0.75485H36.4396V9.40966H36.4199ZM31.0378 7.79305C29.5 7.79305 28.4157 6.57073 28.4157 5.09211V5.05268C28.4157 3.57407 29.4803 2.37147 30.9983 2.37147C32.5361 2.37147 33.6204 3.59379 33.6204 5.0724V5.11183C33.6204 6.59044 32.5558 7.79305 31.0378 7.79305ZM30.9983 9.56738C31.5975 9.58587 32.1944 9.48378 32.7533 9.26717C33.3123 9.05055 33.8221 8.72384 34.2524 8.30642C34.6827 7.88899 35.0247 7.38937 35.2582 6.83721C35.4917 6.28505 35.6119 5.69161 35.6116 5.09211V5.05268C35.6116 2.60804 33.6993 0.616846 31.0378 0.616846C28.3763 0.616846 26.4245 2.62776 26.4245 5.09211C26.4245 7.55647 28.3368 9.54767 30.9983 9.54767M22.8561 9.54767C24.5319 9.54767 25.5176 8.95622 26.4048 8.00991L25.1824 6.78759C24.5121 7.39875 23.901 7.79305 22.9152 7.79305C21.4366 7.79305 20.4115 6.57073 20.4115 5.09211V5.05268C20.4115 3.57407 21.4563 2.37147 22.9152 2.37147C23.7827 2.37147 24.453 2.74605 25.1233 3.35721L26.3456 1.95745C25.5373 1.16886 24.5713 0.616846 22.935 0.616846C22.341 0.600761 21.75 0.705225 21.1976 0.923928C20.6452 1.14263 20.1428 1.47104 19.7209 1.88931C19.2989 2.30758 18.9661 2.80704 18.7426 3.35752C18.519 3.908 18.4094 4.49808 18.4203 5.09211C18.4203 7.5959 20.3129 9.54767 22.8561 9.54767ZM7.93196 8.44364V0.951998H5.98019L3.83128 4.34295L1.68236 0.951998H-0.22998V10.218L-0.170836 10.908C0.322035 10.4546 0.893765 10.08 1.52464 9.76453V3.77122L3.81156 7.16217H3.85099L6.15763 3.73179V8.85765C6.7885 8.87736 7.37995 8.97594 7.93196 9.11394M16.3305 0.951998H14.2801L12.2889 4.16552L10.3175 0.951998H8.2474L11.4018 5.80185V9.33081H13.1761V5.78213L16.3305 0.951998ZM80.0883 0.616846V9.33081H105.836V0.616846H80.0883Z" fill="white"/>
</svg>
