<svg width="112" height="20" viewBox="0 0 112 20" fill="none" xmlns="http://www.w3.org/2000/svg">
<path d="M10.863 9.94267C10.863 7.09645 12.6389 4.59082 15.8257 4.59082C17.9664 4.59082 19.4017 5.51524 20.2531 7.43704L18.5259 8.16686C17.9664 6.92618 17.115 6.36664 15.8257 6.36664C13.9768 6.36664 12.8821 7.8506 12.8821 9.94267C12.8821 12.0347 13.9768 13.5187 15.8257 13.5187C17.0906 13.5187 17.9664 12.9592 18.5259 11.7186L20.2531 12.4483C19.3774 14.3458 17.9421 15.2702 15.8257 15.2702C12.6389 15.2702 10.863 12.7646 10.863 9.94267Z" fill="white"/>
<path d="M22.1505 9.94267C22.1505 7.09645 23.9264 4.59082 27.0889 4.59082C29.2296 4.59082 30.6648 5.51524 31.5163 7.43704L29.7891 8.16686C29.2296 6.92618 28.3782 6.36664 27.0889 6.36664C25.24 6.36664 24.1453 7.8506 24.1453 9.94267C24.1453 12.0347 25.24 13.5187 27.0889 13.5187C28.3538 13.5187 29.2296 12.9592 29.7891 11.7186L31.5163 12.4483C30.6648 14.3701 29.2296 15.2945 27.0889 15.2945C23.9507 15.2702 22.1505 12.7646 22.1505 9.94267Z" fill="white"/>
<path d="M33.2192 9.94267C33.2192 7.19375 34.9221 4.59082 38.1819 4.59082C41.466 4.59082 43.0715 7.04783 43.0715 9.62642V10.4535H35.2383C35.3114 12.2294 36.479 13.5187 38.2062 13.5187C39.6415 13.5187 40.6389 12.7889 41.2714 11.6455L42.8769 12.497C41.8552 14.3944 40.2983 15.2702 38.1819 15.2702C34.9708 15.2702 33.2192 12.7646 33.2192 9.94267ZM41.0281 8.77502C40.7362 7.3154 39.7875 6.34229 38.1819 6.34229C36.6007 6.34229 35.6276 7.36402 35.3357 8.77502H41.0281Z" fill="white"/>
<path d="M46.6719 11.2075V2.49854H43.8743V0.74707H48.6666V11.0372C48.6666 12.7644 49.4208 13.4213 50.6371 13.4213C51.8048 13.4213 52.5589 12.6915 52.8265 11.1832L54.6023 11.5237C54.2374 14.0294 52.7535 15.2701 50.6371 15.2701C48.2531 15.2701 46.6719 13.8105 46.6719 11.2075Z" fill="white"/>
<path d="M56.5242 4.76109H58.5189V6.0261C58.9811 5.29629 60.1001 4.59082 61.4625 4.59082C64.552 4.59082 66.2061 6.78019 66.2061 9.94267C66.2061 13.1052 64.552 15.2702 61.4625 15.2702C60.1732 15.2702 59.0541 14.6377 58.5189 13.9079V19.2841H56.5242V4.76109ZM64.1141 9.94267C64.1141 7.77758 62.995 6.36664 61.2192 6.36664C59.4677 6.36664 58.3487 7.77758 58.3487 9.94267C58.3487 12.1078 59.4677 13.5187 61.2192 13.5187C62.995 13.5187 64.1141 12.1078 64.1141 9.94267Z" fill="white"/>
<path d="M68.4202 9.94267C68.4202 7.07211 70.3416 4.59082 73.5042 4.59082C76.6667 4.59082 78.5882 7.04783 78.5882 9.94267C78.5882 12.8132 76.6667 15.2702 73.5042 15.2702C70.3416 15.2702 68.4202 12.8132 68.4202 9.94267ZM76.6182 9.94267C76.6182 8.06949 75.4988 6.36664 73.5042 6.36664C71.5096 6.36664 70.4148 8.06949 70.4148 9.94267C70.4148 11.8159 71.5335 13.5187 73.5042 13.5187C75.4988 13.5187 76.6182 11.8159 76.6182 9.94267Z" fill="white"/>
<path d="M80.3156 13.3727H83.7701V6.51257H80.7778V4.76103H85.7893V13.3727H89.4141V15.1242H80.3402V13.3727H80.3156ZM83.1376 1.93915C83.1376 1.08776 83.7947 0.430908 84.646 0.430908C85.4973 0.430908 86.1538 1.08776 86.1538 1.93915C86.1538 2.79061 85.4973 3.42312 84.646 3.42312C83.7947 3.39878 83.1376 2.76627 83.1376 1.93915Z" fill="white"/>
<path d="M91.8949 4.76109H93.8902V6.58559C94.6438 5.44221 95.9334 4.59082 97.3933 4.59082C99.4364 4.59082 100.555 5.83149 100.555 7.82626V15.0999H98.5605V8.33712C98.5605 6.9748 97.8555 6.36664 96.7847 6.36664C95.2277 6.36664 93.8902 8.06949 93.8902 10.9644V15.1243H91.8949V4.76109Z" fill="white"/>
<path d="M109.994 11.1591C109.751 12.6673 108.997 13.3971 107.805 13.3971C106.588 13.3971 105.834 12.7403 105.834 11.0132V6.53704H109.727V4.76116H105.834V1.81763H103.839V11.2078C103.839 13.8107 105.421 15.2703 107.805 15.2703C109.921 15.2703 111.405 14.0296 111.77 11.524L109.994 11.1591Z" fill="white"/>
<path d="M3.24875 16.4866H1.4729V19.2841H3.24875V16.4866Z" fill="white"/>
<path d="M7.26262 16.4866H5.51111V19.2841H7.26262V16.4866Z" fill="white"/>
<path d="M-0.22998 14.7349L3.41902 4.76099H5.55977L9.18443 14.7349V15.0998H-0.22998V14.7349ZM2.47028 13.3483H6.50853L4.4894 7.4126L2.47028 13.3483Z" fill="white"/>
</svg>
