<svg width="112" height="19" viewBox="0 0 112 19" fill="none" xmlns="http://www.w3.org/2000/svg">
<path d="M15.917 0.816162H12.7227V18.0763H15.917V0.816162Z" fill="white"/>
<path d="M76.6048 5.73096C75.4226 5.73096 74.3525 5.99238 73.3936 6.5153C72.4348 7.03822 71.6945 7.7962 71.1714 8.78883C70.6483 9.78174 70.3867 10.8086 70.3867 11.8695C70.3867 13.2563 70.6483 14.4329 71.1714 15.3992C71.6945 16.3654 72.4574 17.0986 73.4619 17.5988C74.4658 18.099 75.521 18.3491 76.628 18.3491C78.4166 18.3491 79.8999 17.7486 81.0779 16.5472C82.2567 15.3462 82.846 13.8324 82.846 12.0059C82.846 10.1948 82.2621 8.69616 81.095 7.51005C79.9279 6.32401 78.4316 5.73096 76.6048 5.73096ZM78.7136 14.543C78.1489 15.1796 77.4502 15.4979 76.6164 15.4979C75.7825 15.4979 75.0818 15.1796 74.5136 14.543C73.9448 13.9064 73.6607 13.2375 73.6607 12.04C73.6607 10.8427 73.9448 10.1736 74.5136 9.53705C75.0818 8.90042 75.7825 8.58211 76.6164 8.58211C77.4502 8.58211 78.1489 8.90042 78.7136 9.53705C79.2784 10.1736 79.5605 10.835 79.5605 12.0173C79.5605 13.2299 79.2784 13.9064 78.7136 14.543Z" fill="white"/>
<path d="M22.724 5.73096C21.5417 5.73096 20.4712 5.99238 19.5126 6.5153C18.5538 7.03822 17.8131 7.7962 17.2902 8.78883C16.7673 9.78174 16.5059 10.8086 16.5059 11.8695C16.5059 13.2563 16.7673 14.4329 17.2902 15.3992C17.8131 16.3654 18.5765 17.0986 19.5808 17.5988C20.5849 18.099 21.6401 18.3491 22.7466 18.3491C24.5352 18.3491 26.0186 17.7486 27.1971 16.5472C28.3755 15.3462 28.9648 13.8324 28.9648 12.0059C28.9648 10.1948 28.3811 8.69616 27.2142 7.51005C26.047 6.32401 24.5503 5.73096 22.724 5.73096ZM24.8327 14.543C24.268 15.1796 23.5689 15.4979 22.7353 15.4979C21.9015 15.4979 21.2007 15.1796 20.6323 14.543C20.0639 13.9064 19.7797 13.2375 19.7797 12.04C19.7797 10.8427 20.0639 10.1736 20.6323 9.53705C21.2007 8.90042 21.9015 8.58211 22.7353 8.58211C23.5689 8.58211 24.268 8.90042 24.8327 9.53705C25.3971 10.1736 25.6795 10.835 25.6795 12.0173C25.6795 13.2299 25.3971 13.9064 24.8327 14.543Z" fill="white"/>
<path d="M35.5848 8.66665C37.1452 8.66665 37.9988 9.75504 38.3122 10.6456L41.2316 9.77163C40.7698 8.30382 39.5494 5.73096 35.437 5.73096C31.5834 5.73096 29.324 8.74396 29.324 12.04C29.324 15.336 31.5834 18.3491 35.437 18.3491C39.5494 18.3491 40.7698 15.7763 41.2316 14.3084L38.4113 13.3848C38.098 14.2754 37.1452 15.4134 35.5848 15.4134C34.0244 15.4134 32.573 14.1586 32.573 12.04C32.573 9.9214 34.0244 8.66665 35.5848 8.66665Z" fill="white"/>
<path d="M102.983 6.00388H98.8018L94.6155 10.5529V0.816162H91.3716V18.0763H94.6155V14.856L95.9656 13.3927L99.1897 18.0763H103.229L98.2234 11.0913L102.983 6.00388Z" fill="white"/>
<path d="M67.6749 6.00388L65.5588 13.767L62.996 6.00388H61.2381H59.5794L57.0166 13.767L54.8012 6.00388H51.3723H49.0643L44.8779 10.5529V0.816162H41.634V18.0763H44.8779V14.856L46.2276 13.3927L49.4518 18.0763H53.4914L48.4858 11.0913L51.845 7.50079L55.1843 18.0763H58.514L61.2381 9.81625L63.9621 18.0763H67.2919L71.1038 6.00388H67.6749Z" fill="white"/>
<path d="M86.6172 7.72048V6.00394H83.5017V18.0764H86.7456V14.3478C86.7456 12.2942 86.273 8.66811 90.7919 9.24539V5.97205C88.2351 5.73111 87.1253 6.90964 86.6172 7.72048Z" fill="white"/>
<path d="M107.482 10.5976C106.503 10.4 105.436 10.3448 105.436 9.30029C105.436 8.3877 106.492 8.13481 107.163 8.13481C107.834 8.13481 108.801 8.61859 108.966 9.7401L111.652 9.17388C111.495 7.85993 110.341 5.63892 107.075 5.63892C104.876 5.63892 102.407 6.98032 102.407 9.43694C102.407 12.06 104.513 12.9396 106.756 13.4124C108.999 13.8852 108.702 14.5663 108.702 14.8088C108.702 15.1651 108.306 15.8744 107.122 15.8744C105.938 15.8744 105.14 15.1496 104.865 14.0721L102.094 14.6768C102.578 16.7769 104.062 18.3491 107.086 18.3491C108.897 18.3491 111.77 17.7445 111.77 14.5559C111.77 11.3673 108.461 10.7954 107.482 10.5976Z" fill="white"/>
<path d="M4.01067 0.816162H-0.22998V5.0568H4.01067V0.816162Z" fill="white"/>
<path d="M4.01067 5.20557H-0.22998V9.41281H4.01067V5.20557Z" fill="white"/>
<path d="M4.01067 9.56177H-0.22998V13.6871H4.01067V9.56177Z" fill="white"/>
<path d="M4.01067 13.8357H-0.22998V18.0763H4.01067V13.8357Z" fill="white"/>
<path d="M8.32565 13.8357H4.15942V18.0763H7.66922C7.8909 18.0763 8.11012 18.0544 8.32565 18.0149V13.8357Z" fill="white"/>
<path d="M8.32565 9.56177H4.15942V13.6871H8.32565V9.56177Z" fill="white"/>
<path d="M4.15942 5.20557V9.41281H8.08526L8.32565 9.32006V5.20557H4.15942Z" fill="white"/>
<path d="M4.15942 5.0568H8.32565V0.919899C8.08437 0.851265 7.85573 0.816162 7.6527 0.816162H4.15942V5.0568Z" fill="white"/>
<path d="M8.47437 5.05684H11.3629C11.3631 5.04147 11.3635 5.02631 11.3635 5.01087C11.3635 2.78371 9.77589 1.40208 8.47437 0.966309V5.05684Z" fill="white"/>
<path d="M8.47437 5.20557V9.25976C9.72357 8.72496 11.2744 7.48306 11.3588 5.20557H8.47437Z" fill="white"/>
<path d="M8.47437 13.6871H11.8447C11.8447 13.6853 11.8448 13.6836 11.8448 13.6819C11.8448 11.2804 10.0844 9.94325 8.72363 9.56177H8.47437V13.6871Z" fill="white"/>
<path d="M8.47437 13.8357V17.9845C10.2791 17.5774 11.7679 15.8496 11.8407 13.8357H8.47437Z" fill="white"/>
</svg>
