<svg width="112" height="22" viewBox="0 0 112 22" fill="none" xmlns="http://www.w3.org/2000/svg">
<path d="M31.0987 15.7231C29.0332 15.7231 27.7533 13.8693 27.7533 11.3044C27.7533 8.76496 28.8304 6.873 31.086 6.873C32.5686 6.873 33.5444 7.82535 33.722 9.08234H37.1688C36.9912 7.52057 36.2943 6.14927 35.0779 5.23507C34.0894 4.47319 32.7207 4.00342 31.0987 4.00342C26.9422 4.00342 24.243 7.15237 24.243 11.3044C24.243 15.4818 27.0309 18.5419 31.1242 18.5419C33.0882 18.5419 34.5201 17.9959 35.5847 16.9547C36.535 16.0405 37.1688 14.7707 37.2573 13.3868H33.8105C33.6586 14.7454 32.6447 15.7231 31.0987 15.7231Z" fill="white"/>
<path d="M43.6187 7.97754C40.4253 7.97754 38.2837 10.2631 38.2837 13.2723C38.2837 16.2816 40.4253 18.5671 43.6187 18.5671C46.8373 18.5671 48.941 16.2816 48.941 13.2723C48.941 10.2631 46.8373 7.97754 43.6187 7.97754ZM43.606 16.2943C42.2246 16.2943 41.5023 15.0881 41.5023 13.2723C41.5023 11.4566 42.2246 10.225 43.606 10.225C44.9873 10.225 45.7348 11.4566 45.7348 13.2723C45.7224 15.0881 44.9873 16.2943 43.606 16.2943Z" fill="white"/>
<path d="M53.45 6.91483C54.1279 6.23555 54.1279 5.13411 53.45 4.45483C52.7718 3.77547 51.6727 3.77547 50.9948 4.45483C50.3168 5.13411 50.3168 6.23555 50.9948 6.91483C51.6727 7.59418 52.7718 7.59418 53.45 6.91483Z" fill="white"/>
<path d="M49.4607 10.4918H50.7911V18.2499H53.9593V8.24438H49.4607V10.4918Z" fill="white"/>
<path d="M61.7527 7.95215C60.3717 7.95215 59.4084 8.53623 58.6736 9.61549H58.6102V8.24419H55.5563V18.237H58.7369V12.7137C58.7369 11.482 59.4339 10.6059 60.4857 10.6059C61.5248 10.6059 62.0444 11.3296 62.0444 12.3836V18.237H65.225V11.736C65.225 9.51392 63.9325 7.95215 61.7527 7.95215Z" fill="white"/>
<path d="M72.6765 4.28271H66.7334V18.2371H72.4616C74.2102 18.2371 75.6165 17.7928 76.7064 16.9674C78.2653 15.7738 79.127 13.8058 79.127 11.3425C79.127 7.07613 76.5286 4.28271 72.6765 4.28271ZM72.2075 15.3422H70.1803V7.17777H72.246C74.4125 7.17777 75.6417 8.8157 75.6417 11.3552C75.6291 13.9074 74.4636 15.3422 72.2075 15.3422Z" fill="white"/>
<path d="M88.5413 9.27264C87.6803 8.49816 86.5519 8.02832 85.133 8.02832C82.0915 8.02832 80.0132 10.3138 80.0132 13.2977C80.0132 16.3197 82.0411 18.6053 85.336 18.6053C86.603 18.6053 87.6166 18.2751 88.4531 17.6911C89.3274 17.0816 89.9105 16.2308 90.1261 15.3293H87.0335C86.7549 15.9515 86.2103 16.3197 85.3738 16.3197C84.0683 16.3197 83.3333 15.4817 83.1303 14.1358H90.3032C90.3158 12.0915 89.7327 10.3646 88.5413 9.27264ZM83.1436 12.2312C83.3585 11.0376 83.9794 10.2757 85.1834 10.2757C86.2103 10.2757 86.9579 11.0376 87.072 12.2312H83.1436Z" fill="white"/>
<path d="M96.5633 11.9901C95.2956 11.7616 94.1679 11.66 94.1679 10.9616C94.1679 10.3394 94.7762 10.0474 95.549 10.0474C96.424 10.0474 97.0323 10.3267 97.1464 11.2156H100.073C99.9212 9.24745 98.4008 8.01587 95.5749 8.01587C93.2173 8.01587 91.2664 9.1078 91.2664 11.2156C91.2664 13.5646 93.1165 14.0217 94.8525 14.3137C96.1832 14.5422 97.3865 14.6439 97.3865 15.5453C97.3865 16.1929 96.7789 16.5358 95.8283 16.5358C94.7762 16.5358 94.1175 16.0533 93.9908 15.0502H90.9878C91.0886 17.2595 92.9135 18.6054 95.8409 18.6054C98.4512 18.6054 100.378 17.4754 100.378 15.2915C100.39 12.7393 98.3245 12.2822 96.5633 11.9901Z" fill="white"/>
<path d="M107.854 12.0027L111.365 8.24429H107.702L104.737 11.6219V4.28271H101.607V18.2498H104.737V15.1771L105.7 14.1613L108.095 18.2498H111.77L107.854 12.0027Z" fill="white"/>
<path d="M10.2782 12.2312C10.8102 12.2312 11.2414 11.7992 11.2414 11.2662C11.2414 10.7333 10.8102 10.3013 10.2782 10.3013C9.74639 10.3013 9.31519 10.7333 9.31519 11.2662C9.31519 11.7992 9.74639 12.2312 10.2782 12.2312Z" fill="white"/>
<path d="M17.9578 12.2312C18.4897 12.2312 18.9209 11.7992 18.9209 11.2662C18.9209 10.7333 18.4897 10.3013 17.9578 10.3013C17.4259 10.3013 16.9948 10.7333 16.9948 11.2662C16.9948 11.7992 17.4259 12.2312 17.9578 12.2312Z" fill="white"/>
<path d="M17.9578 19.9386C18.4897 19.9386 18.9209 19.5065 18.9209 18.9736C18.9209 18.4407 18.4897 18.0085 17.9578 18.0085C17.4259 18.0085 16.9948 18.4407 16.9948 18.9736C16.9948 19.5065 17.4259 19.9386 17.9578 19.9386Z" fill="white"/>
<path d="M20.7835 3.38126C20.6822 1.97181 19.5543 0.829063 18.1477 0.727493C17.248 0.664003 16.4369 1.00679 15.8667 1.59087C15.4359 2.0353 14.8529 2.30193 14.232 2.30193H14.0039C13.3703 2.30193 12.7747 2.0353 12.3312 1.5782C11.8116 1.04494 11.0893 0.727493 10.2909 0.727493C9.4926 0.727493 8.77027 1.05761 8.25073 1.5782C7.80721 2.0353 7.21158 2.30193 6.57798 2.30193H6.36255C5.74163 2.30193 5.14602 2.06071 4.71516 1.61628C4.62646 1.52745 4.53774 1.43855 4.44904 1.36232C3.37193 0.486202 1.78788 0.511612 0.748766 1.43855C-0.505786 2.54322 -0.556475 4.47319 0.609368 5.64135C0.622045 5.65402 0.634715 5.66676 0.647385 5.67943C1.10359 6.11112 1.34436 6.72068 1.34436 7.34284V7.55865C1.34436 8.19355 1.07824 8.7903 0.622038 9.23473C0.089808 9.75532 -0.226997 10.4791 -0.226997 11.279C-0.226997 12.0789 0.102482 12.8027 0.622038 13.3233C1.07824 13.7677 1.34436 14.3645 1.34436 14.9993V15.2913C1.34436 15.9135 1.07824 16.4976 0.634715 16.9293C0.0771374 17.4753 -0.265014 18.2498 -0.226997 19.1005C-0.163636 20.5988 1.0529 21.8051 2.53554 21.8559C3.39727 21.8813 4.17026 21.5384 4.71516 20.9671C5.14602 20.5227 5.72893 20.2434 6.34988 20.2434H6.59065C7.21158 20.2434 7.79454 20.51 8.22539 20.9671C8.79561 21.5638 9.6193 21.9067 10.5191 21.8432C11.9257 21.7416 13.0662 20.5988 13.1675 19.1768C13.2816 17.488 11.9637 16.0913 10.3036 16.0913C9.51794 16.0913 8.79561 16.4087 8.27607 16.9293C7.83255 17.3737 7.23692 17.6404 6.61599 17.6404H6.34988C5.72893 17.6404 5.12068 17.3991 4.67715 16.942C4.66447 16.9293 4.66447 16.9293 4.6518 16.9166C4.1956 16.4722 3.92949 15.8754 3.92949 15.2406V14.9866C3.92949 14.3517 4.1956 13.755 4.6518 13.3106C5.18403 12.79 5.50086 12.0662 5.50086 11.2663C5.50086 10.4664 5.17136 9.74258 4.6518 9.22199C4.1956 8.77763 3.92949 8.18081 3.92949 7.54598V7.31743C3.92949 6.68253 4.1956 6.08578 4.63914 5.64135C4.65181 5.62868 4.65181 5.62868 4.66448 5.61601C4.67715 5.60327 4.67715 5.60327 4.68982 5.5906C5.13335 5.14617 5.72893 4.87954 6.36255 4.87954H6.59065C7.22425 4.87954 7.81988 5.14617 8.2634 5.60327C8.78294 6.13653 9.50527 6.45398 10.3036 6.45398C11.102 6.45398 11.8243 6.12386 12.3438 5.60327C12.7874 5.14617 13.383 4.87954 14.0166 4.87954H14.2193C14.8529 4.87954 15.4485 5.14617 15.8921 5.60327C16.4116 6.13653 17.1339 6.45398 17.9323 6.45398C19.5797 6.46672 20.8976 5.07001 20.7835 3.38126Z" fill="white"/>
</svg>
