<svg width="112" height="33" viewBox="0 0 112 33" fill="none" xmlns="http://www.w3.org/2000/svg">
<path fill-rule="evenodd" clip-rule="evenodd" d="M19.8298 23.0745L28.1153 0.25293H37.0549L28.8421 23.0745C28.624 23.6559 27.9699 24.092 27.3158 24.092H18.5215C19.103 24.0193 19.6117 23.6559 19.8298 23.0745ZM82.8436 24.4553C78.9912 24.4553 76.5928 22.2023 76.5928 18.6409C76.5928 14.9343 78.7732 12.6085 82.3348 12.6085H82.6252C83.0612 12.6085 83.7156 12.6085 84.5148 12.7539V8.24773H87.0588V24.092C87.0588 24.092 84.6604 24.4553 82.8436 24.4553ZM82.8436 14.5708C80.4452 14.5708 79.2093 15.8791 79.2093 18.5683C79.2093 20.9667 80.6628 22.493 82.9156 22.493C83.3524 22.493 83.8604 22.493 84.5148 22.4203V14.7162C84.4708 14.7114 84.4276 14.7065 84.3844 14.7016L84.2708 14.6889L84.2692 14.6887C83.7156 14.6263 83.2236 14.5708 82.8436 14.5708ZM48.4656 24.092L41.7064 12.2451V24.092H39.3807V9.11989H42.6512L49.4105 20.8213V9.11989H51.8089V24.092H48.4656ZM70.0516 24.31C68.8887 24.31 67.7259 24.1646 66.2723 23.8739H66.1269V21.7662L66.3449 21.8389C67.5805 22.1296 68.6707 22.3477 69.7609 22.3477C70.6331 22.3477 72.6681 22.2023 72.6681 20.894C72.6681 19.8038 71.2871 19.5131 70.1243 19.3677H70.0516C69.9516 19.3345 69.8516 19.3164 69.7587 19.2996C69.6488 19.2798 69.5489 19.2617 69.4702 19.2224C67.7985 18.7863 66.0542 18.1322 66.0542 15.9518C66.0542 13.7714 67.7985 12.5358 70.7784 12.5358C72.232 12.5358 73.2495 12.6812 74.049 12.8265L74.4851 12.8993V14.9343L74.2671 14.8616C74.0939 14.8349 73.9158 14.8059 73.7337 14.7761C72.9226 14.6436 72.0322 14.4982 71.1418 14.4982C69.9789 14.4982 68.5253 14.7162 68.5253 15.8064C68.5253 16.6414 69.5911 16.8768 70.83 17.1505L70.9964 17.1873L71.1719 17.2277C73.0227 17.6523 75.1392 18.1378 75.1392 20.6033C75.2119 23.0017 73.3222 24.31 70.0516 24.31ZM94.1084 24.31C91.4924 24.31 89.094 23.8739 89.094 20.5306C89.094 16.8966 92.8004 16.8966 95.0532 16.8966C95.1484 16.8966 95.3964 16.9104 95.6748 16.9261C96.0356 16.9462 96.4476 16.9693 96.6524 16.9693C96.6524 14.9343 96.6524 14.4982 93.6724 14.4982C92.51 14.4982 91.2012 14.7162 90.1116 14.9343L89.8932 15.0069V12.9719H90.0388C91.3468 12.6812 92.6548 12.6085 93.9636 12.6085C96.798 12.6085 99.1964 12.8993 99.1964 16.3879V24.092H99.0508C97.0156 24.31 95.4172 24.31 94.1084 24.31ZM94.9812 18.7137C92.8732 18.7137 91.4924 19.0044 91.4924 20.6033C91.4924 22.4203 93.1636 22.5656 94.7628 22.5656C95.1036 22.5656 95.618 22.5408 96.0452 22.5201C96.3468 22.5056 96.6044 22.493 96.7252 22.493V18.7863C96.5028 18.7863 95.9532 18.7591 95.5268 18.7379C95.258 18.7245 95.0372 18.7137 94.9812 18.7137ZM58.9315 24.31C56.3151 24.31 53.9167 23.8739 53.9167 20.5306C53.9167 16.8966 57.6233 16.8966 59.8764 16.8966C59.9715 16.8966 60.2191 16.9104 60.498 16.9261C60.8581 16.9462 61.2706 16.9693 61.4754 16.9693C61.4754 14.9343 61.4754 14.4982 58.4955 14.4982C57.3326 14.4982 56.0243 14.7162 54.9342 14.9343L54.7161 15.0069V12.9719H54.8615C56.1697 12.6812 57.4779 12.6085 58.7862 12.6085C61.6207 12.6085 64.0191 12.8993 64.0191 16.3879V24.092H63.8738C61.8387 24.31 60.2398 24.31 58.9315 24.31ZM59.8037 18.7137C57.696 18.7137 56.3151 19.0044 56.3151 20.6033C56.3151 22.4203 57.9867 22.5656 59.5857 22.5656C59.9262 22.5656 60.4411 22.5408 60.8678 22.5201C61.1695 22.5056 61.4276 22.493 61.548 22.493V18.7863C61.2716 18.7863 60.703 18.7571 60.2867 18.7357L60.2855 18.7357C60.0458 18.7233 59.8568 18.7137 59.8037 18.7137ZM109.153 29.1796V24.2373C108.208 24.3827 107.628 24.3827 107.264 24.3827C106.246 24.3827 105.156 24.1646 104.284 23.8013C102.394 23.0745 101.232 21.0394 101.232 18.4229C101.232 17.1147 101.522 14.7889 103.63 13.4807C104.72 12.8992 105.956 12.6085 107.845 12.6085C108.149 12.6085 108.515 12.6242 108.908 12.6409C109.36 12.6603 109.849 12.6812 110.316 12.6812L111.77 12.7539V28.0167C111.697 28.0893 109.153 29.1796 109.153 29.1796ZM107.628 14.5708C105.084 14.5708 103.776 15.8791 103.776 18.4229C103.776 21.6935 105.737 22.4203 107.336 22.4203C107.7 22.4203 108.208 22.4203 109.153 22.2749V14.6436C108.427 14.5709 108.064 14.5708 107.628 14.5708ZM17.7946 23.8013C18.3034 23.8013 18.7395 23.5833 19.0302 23.1472C19.0302 23.1162 19.0565 23.0853 19.0923 23.0432C19.1407 22.9863 19.2064 22.909 19.2482 22.7837L22.3007 14.4255L20.4838 9.55597C20.1931 8.75645 19.2482 8.39309 18.5214 8.75645C18.2307 8.82917 18.0127 9.04717 17.8673 9.26525C17.8673 9.30605 17.8215 9.36981 17.7683 9.44357C17.7269 9.50117 17.6811 9.56493 17.6492 9.62861L14.5967 17.9869L16.4137 22.9291C16.6317 23.4379 17.1405 23.8013 17.7946 23.8013ZM9.58186 8.24773H18.4488C17.7947 8.24773 17.2132 8.68381 16.9952 9.26525L8.7097 32.0868H-0.22998L8.05554 9.26525C8.27362 8.68381 8.9277 8.24773 9.58186 8.24773Z" fill="white"/>
</svg>
